<?xml version="1.0" standalone="no"?>
<!DOCTYPE svg PUBLIC "-//W3C//DTD SVG 20010904//EN"
 "http://www.w3.org/TR/2001/REC-SVG-20010904/DTD/svg10.dtd">
<svg version="1.0" xmlns="http://www.w3.org/2000/svg"
 width="211.000000pt" height="211.000000pt" viewBox="0 0 211.000000 211.000000"
 preserveAspectRatio="xMidYMid meet">

<g transform="translate(0.000000,211.000000) scale(0.100000,-0.100000)"
fill="#000000" stroke="none">
<path d="M840 2071 c-203 -44 -363 -132 -516 -285 -206 -207 -304 -441 -304
-731 0 -280 96 -518 289 -718 138 -143 294 -235 489 -290 66 -18 104 -21 257
-21 198 0 256 11 410 75 227 94 450 316 544 543 64 155 75 212 75 411 0 199
-11 256 -75 411 -99 237 -331 461 -574 555 -178 69 -412 89 -595 50z m415 -16
c332 -63 632 -318 752 -637 47 -123 65 -222 66 -353 1 -133 -15 -230 -58 -353
-103 -287 -330 -514 -616 -616 -124 -44 -220 -60 -354 -59 -273 2 -514 104
-709 299 -145 145 -243 325 -283 523 -20 99 -20 293 0 392 78 385 373 695 753
793 143 37 295 41 449 11z"/>
<path d="M990 2014 c-12 -4 -14 -18 -12 -69 4 -64 22 -93 22 -35 0 39 17 38
51 -2 31 -38 50 -32 25 7 -15 23 -15 27 -1 41 20 21 19 30 -7 48 -22 15 -46
18 -78 10z m70 -39 c0 -10 -10 -15 -30 -15 -20 0 -30 5 -30 15 0 10 10 15 30
15 20 0 30 -5 30 -15z"/>
<path d="M880 2001 c-32 -6 -35 -9 -33 -40 0 -18 4 -49 8 -68 6 -32 8 -34 38
-28 53 11 69 17 62 23 -3 4 -22 5 -41 3 -29 -2 -34 1 -34 18 0 17 6 21 30 21
19 0 30 5 30 14 0 11 -8 12 -35 6 -30 -7 -35 -5 -35 11 0 12 7 19 19 19 28 0
52 11 45 21 -3 5 -8 8 -12 8 -4 -1 -23 -4 -42 -8z"/>
<path d="M1125 1998 c-11 -36 -15 -118 -6 -118 10 0 15 14 24 65 2 15 9 8 24
-27 33 -72 46 -66 57 25 9 68 -8 79 -22 15 l-8 -43 -22 48 c-20 46 -39 60 -47
35z"/>
<path d="M751 1966 c-40 -14 -52 -33 -19 -32 17 1 25 -8 37 -46 8 -27 20 -48
28 -48 16 0 16 -2 -2 50 -8 23 -15 49 -15 56 0 8 7 14 15 14 8 0 15 5 15 10 0
13 -16 12 -59 -4z"/>
<path d="M1271 1926 c-46 -61 -48 -66 -26 -66 8 0 15 5 15 11 0 20 55 5 65
-18 15 -35 25 -27 24 20 -2 58 -12 100 -25 104 -6 2 -30 -21 -53 -51z m47 -21
c-2 -10 -7 -12 -17 -5 -13 7 -13 11 -1 25 15 18 24 8 18 -20z"/>
<path d="M1390 1944 c0 -4 7 -12 16 -19 15 -10 15 -14 1 -41 -23 -46 -30 -74
-17 -74 7 0 21 22 33 50 18 43 24 49 44 44 35 -9 27 3 -17 26 -40 20 -60 25
-60 14z"/>
<path d="M660 1917 c0 -7 7 -22 15 -33 25 -33 17 -36 -30 -9 -24 15 -49 24
-55 20 -6 -4 2 -29 20 -66 17 -33 35 -57 40 -54 6 4 4 18 -6 36 -8 17 -13 33
-11 36 3 2 23 -6 45 -19 23 -12 44 -19 48 -15 10 9 -42 117 -56 117 -5 0 -10
-6 -10 -13z"/>
<path d="M1481 1844 c-41 -77 -24 -94 19 -19 22 38 29 60 22 67 -6 6 -20 -10
-41 -48z"/>
<path d="M536 1862 c-7 -11 57 -112 71 -112 19 0 17 5 -22 65 -35 56 -40 61
-49 47z"/>
<path d="M1532 1827 c-28 -30 -28 -71 0 -97 29 -26 59 -25 86 3 29 31 29 81 0
101 -32 22 -61 20 -86 -7z m76 -9 c18 -18 15 -45 -8 -68 -24 -24 -34 -25 -54
-4 -21 21 -20 40 4 64 23 23 41 25 58 8z"/>
<path d="M453 1775 c6 -36 -4 -44 -32 -26 -15 10 -41 4 -41 -9 0 -4 16 -11 35
-14 19 -4 47 -18 63 -31 35 -29 49 -22 23 12 -11 13 -22 41 -26 63 -4 22 -11
40 -17 40 -7 0 -8 -14 -5 -35z"/>
<path d="M1028 1773 c18 -2 45 -2 60 0 15 2 0 4 -33 4 -33 0 -45 -2 -27 -4z"/>
<path d="M935 1753 c-62 -32 -136 -123 -135 -165 0 -7 10 7 21 32 27 60 64 98
124 126 28 13 43 24 35 24 -8 -1 -28 -8 -45 -17z"/>
<path d="M1166 1746 c27 -13 67 -43 87 -66 20 -24 37 -41 37 -37 0 4 -17 25
-37 48 -35 39 -99 79 -125 79 -7 0 10 -11 38 -24z"/>
<path d="M1647 1722 c-53 -53 -53 -81 0 -30 36 35 38 32 22 -25 -19 -70 -4
-76 51 -22 27 27 47 52 43 58 -3 5 -18 -4 -34 -19 -16 -15 -31 -25 -33 -23 -3
3 0 24 6 47 16 65 0 69 -55 14z"/>
<path d="M332 1687 c-35 -36 -47 -73 -14 -44 17 16 21 15 61 -19 27 -23 46
-33 52 -27 6 6 -5 21 -31 42 -33 26 -39 36 -34 57 8 31 4 30 -34 -9z"/>
<path d="M1291 1625 c1 -19 18 -51 18 -35 0 8 -4 22 -9 30 -5 8 -9 11 -9 5z"/>
<path d="M1747 1612 c-31 -9 -56 -21 -54 -27 2 -5 12 -9 21 -7 24 4 47 -28 41
-55 -10 -42 11 -31 49 27 36 56 40 81 13 79 -7 0 -38 -8 -70 -17z m53 -21 c0
-5 -6 -14 -14 -20 -11 -9 -16 -9 -21 0 -4 6 -1 15 6 20 18 11 29 11 29 0z"/>
<path d="M270 1611 c0 -17 101 -84 111 -74 7 7 -8 23 -43 46 -55 38 -68 43
-68 28z"/>
<path d="M792 1515 c-1 -35 5 -73 14 -90 8 -16 11 -21 8 -10 -4 11 -10 52 -14
90 l-7 70 -1 -60z"/>
<path d="M1312 1520 c-1 -30 -5 -66 -7 -80 l-6 -25 11 25 c6 13 9 49 7 80 l-3
55 -2 -55z"/>
<path d="M226 1538 c-21 -29 -20 -51 2 -78 27 -33 79 -32 105 3 16 20 19 32
12 43 -14 22 -29 14 -29 -16 -1 -31 -39 -40 -67 -14 -26 23 -24 39 9 63 26 19
26 20 5 21 -12 0 -29 -10 -37 -22z"/>
<path d="M1828 1509 c-32 -16 -58 -33 -58 -37 0 -4 9 -22 20 -39 25 -42 46
-43 25 -2 -9 17 -15 32 -13 34 2 1 22 12 46 24 23 12 42 28 42 36 0 18 6 20
-62 -16z"/>
<path d="M150 1377 c0 -8 11 -18 25 -21 20 -5 23 -10 16 -29 -6 -15 -17 -22
-35 -22 -44 0 -30 -18 31 -37 32 -10 59 -18 61 -18 1 0 2 6 2 14 0 8 -12 17
-26 20 -18 5 -24 12 -20 22 3 9 6 20 6 26 0 6 14 8 36 3 52 -9 40 16 -16 32
-23 7 -51 15 -61 18 -13 4 -19 1 -19 -8z"/>
<path d="M828 1375 c15 -27 32 -46 62 -70 19 -15 -20 33 -68 85 -3 3 0 -4 6
-15z"/>
<path d="M1240 1337 c-24 -29 -33 -43 -20 -32 29 23 46 43 61 68 16 27 7 20
-41 -36z"/>
<path d="M1911 1364 c-74 -23 -89 -50 -52 -95 18 -22 20 -22 75 -9 33 8 56 19
56 27 0 17 -8 16 -61 -2 -40 -14 -45 -14 -56 1 -19 26 -5 42 48 55 46 12 59
22 42 32 -5 2 -28 -2 -52 -9z"/>
<path d="M375 1324 c-36 -87 -49 -159 -48 -269 3 -348 221 -631 548 -711 95
-24 268 -24 360 0 265 67 467 270 532 533 33 134 19 328 -32 451 l-14 32 -170
0 -171 0 0 -360 0 -360 -325 0 -325 0 0 360 0 360 -170 0 -170 0 -15 -36z"/>
<path d="M790 1017 l0 -317 265 0 265 0 0 315 0 316 -31 -35 c-16 -19 -58 -49
-91 -66 -34 -16 -56 -30 -49 -30 20 0 89 39 126 71 l35 31 0 -296 0 -296 -255
0 -255 0 0 297 0 296 28 -24 27 -24 -25 30 c-14 17 -28 34 -32 40 -5 5 -8
-134 -8 -308z"/>
<path d="M866 1248 c7 -12 84 -50 93 -46 4 2 -17 15 -46 29 -28 14 -50 21 -47
17z"/>
<path d="M1003 1253 c9 -2 25 -2 35 0 9 3 1 5 -18 5 -19 0 -27 -2 -17 -5z"/>
<path d="M1073 1253 c9 -2 25 -2 35 0 9 3 1 5 -18 5 -19 0 -27 -2 -17 -5z"/>
<path d="M110 1233 c0 -6 19 -14 43 -19 l42 -9 -47 -20 c-54 -22 -61 -41 -20
-49 82 -15 102 -16 102 -7 0 10 -11 14 -65 24 -15 3 -8 9 28 25 47 21 64 52
28 52 -10 0 -39 3 -65 6 -28 4 -46 3 -46 -3z"/>
<path d="M1913 1223 c-28 -3 -43 -9 -43 -18 0 -10 11 -12 43 -8 l42 4 -37 -31
c-54 -46 -50 -60 15 -54 65 7 77 11 77 24 0 6 -16 8 -42 4 l-43 -5 38 33 c42
37 48 59 15 56 -13 -1 -42 -3 -65 -5z"/>
<path d="M988 1193 c6 -2 18 -2 25 0 6 3 1 5 -13 5 -14 0 -19 -2 -12 -5z"/>
<path d="M1098 1193 c6 -2 18 -2 25 0 6 3 1 5 -13 5 -14 0 -19 -2 -12 -5z"/>
<path d="M90 1090 c0 -5 21 -10 48 -10 26 0 57 -3 70 -6 16 -5 22 -2 22 10 0
13 -12 16 -70 16 -40 0 -70 -4 -70 -10z"/>
<path d="M1880 1075 c0 -13 11 -15 65 -13 87 4 88 22 3 26 -57 2 -68 0 -68
-13z"/>
<path d="M117 1043 c-44 -7 -30 -35 23 -49 l45 -11 -30 -12 c-16 -6 -36 -14
-42 -16 -7 -2 -13 -13 -13 -24 0 -17 6 -18 63 -14 80 7 99 23 27 24 l-55 1 48
16 c26 8 47 21 47 28 0 13 -31 24 -69 24 -45 0 1 17 52 19 9 1 17 6 17 11 0
10 -57 11 -113 3z"/>
<path d="M1938 1023 c-65 -17 -77 -41 -30 -60 15 -6 44 -18 65 -27 31 -14 37
-14 37 -2 0 8 -20 22 -45 32 -52 19 -50 25 7 39 23 6 43 16 46 23 5 15 -7 14
-80 -5z"/>
<path d="M1865 888 c-3 -18 -9 -41 -11 -50 -3 -10 -1 -18 5 -18 6 0 14 15 19
32 5 19 16 34 26 36 14 3 17 -3 16 -30 -3 -48 -1 -55 10 -38 5 8 10 26 10 39
0 17 4 22 16 17 9 -3 17 -6 19 -6 2 0 -1 -14 -6 -32 -5 -17 -6 -34 -4 -37 10
-9 23 14 30 51 7 36 6 37 -32 47 -96 25 -90 26 -98 -11z"/>
<path d="M165 888 c-57 -12 -59 -13 -51 -26 5 -9 26 -7 114 13 13 3 20 10 17
15 -7 11 -12 11 -80 -2z"/>
<path d="M178 833 c-28 -8 -48 -20 -48 -28 0 -11 6 -12 25 -5 22 9 27 7 35
-16 13 -33 14 -31 -15 -38 -25 -6 -35 -26 -13 -26 29 0 118 35 118 47 0 9 -6
10 -26 3 -30 -12 -40 -8 -47 21 -4 16 1 23 24 31 16 5 26 14 23 19 -7 11 -18
10 -76 -8z"/>
<path d="M1840 790 c0 -6 11 -16 25 -22 30 -14 19 -33 -25 -43 -16 -3 -31 -12
-33 -19 -4 -11 2 -12 28 -6 28 6 35 5 40 -10 8 -24 34 -33 52 -18 13 10 47 79
41 83 -11 6 -112 45 -119 45 -5 0 -9 -5 -9 -10z m97 -55 c2 -6 -3 -20 -11 -30
-18 -25 -38 -9 -29 23 6 23 33 27 40 7z"/>
<path d="M260 706 c0 -7 9 -16 20 -19 47 -12 8 -72 -43 -65 -17 2 -22 10 -22
33 -1 40 -19 39 -23 -2 -3 -25 2 -35 22 -48 63 -42 143 48 88 98 -23 21 -42
22 -42 3z"/>
<path d="M1777 652 c-20 -22 -22 -53 -5 -70 18 -18 43 -15 63 8 19 21 45 27
45 11 0 -5 -12 -19 -27 -30 -27 -20 -27 -20 -6 -21 26 0 58 42 49 65 -10 26
-36 29 -66 6 -16 -11 -34 -21 -40 -21 -20 0 -6 35 18 45 12 5 22 13 22 17 0
15 -37 8 -53 -10z"/>
<path d="M289 571 c-34 -35 -36 -49 -8 -85 25 -31 57 -33 93 -5 32 25 34 66 6
97 -28 30 -56 28 -91 -7z m85 -23 c8 -13 6 -22 -9 -38 -26 -29 -69 -24 -73 9
-7 45 57 68 82 29z"/>
<path d="M1725 570 c-6 -10 82 -79 103 -80 23 0 12 17 -30 46 -65 44 -66 45
-73 34z"/>
<path d="M1676 512 c-3 -6 12 -26 34 -46 34 -31 39 -39 30 -56 -16 -31 3 -24
40 15 33 34 36 61 5 35 -13 -11 -20 -9 -43 11 -46 42 -60 51 -66 41z"/>
<path d="M391 456 c-27 -27 -40 -49 -36 -56 6 -9 10 -8 17 4 11 20 32 21 49 0
10 -13 10 -19 0 -36 -24 -38 0 -32 44 12 25 24 45 48 45 52 0 13 -22 9 -42 -8
-14 -14 -20 -14 -33 -4 -19 16 -19 34 0 50 16 13 20 30 7 30 -4 0 -27 -20 -51
-44z"/>
<path d="M1595 430 c-4 -6 2 -22 14 -34 12 -12 21 -31 21 -42 0 -33 12 -64 21
-58 5 3 7 21 3 41 -6 34 -6 35 17 28 13 -4 26 -7 29 -7 41 -1 34 17 -12 26
-18 3 -44 18 -59 32 -18 18 -29 22 -34 14z"/>
<path d="M538 318 c-7 -18 2 -38 16 -38 18 0 35 21 29 36 -6 17 -39 18 -45 2z"/>
<path d="M660 250 c-12 -33 -19 -64 -15 -68 4 -4 10 -2 12 4 2 6 9 18 16 27
16 22 61 12 54 -12 -2 -9 -6 -22 -8 -30 -2 -7 1 -15 6 -17 9 -3 55 97 55 119
0 17 -21 5 -30 -18 -9 -22 -12 -24 -35 -13 -17 8 -24 17 -20 27 11 27 10 33
-1 38 -6 2 -21 -24 -34 -57z"/>
<path d="M1504 295 c-4 -9 -2 -21 4 -27 15 -15 44 -1 40 19 -4 23 -36 29 -44
8z"/>
<path d="M1375 273 c31 -78 30 -103 -4 -103 -14 0 -24 13 -37 49 -11 31 -22
47 -30 44 -15 -6 17 -91 42 -110 19 -14 69 1 78 23 8 22 -25 114 -42 114 -9 0
-12 -6 -7 -17z"/>
<path d="M823 249 c-43 -16 -57 -83 -25 -112 23 -21 65 -22 81 -3 16 19 -5 32
-24 16 -38 -31 -64 39 -29 75 15 15 18 15 41 0 28 -19 42 -13 24 9 -16 19 -42
25 -68 15z"/>
<path d="M1250 238 c1 -31 27 -112 38 -116 15 -5 15 10 -1 72 -12 45 -37 76
-37 44z"/>
<path d="M920 166 c0 -37 4 -66 10 -66 6 0 10 21 10 47 0 53 10 51 19 -4 8
-45 28 -54 41 -16 23 63 30 70 25 21 -3 -25 -2 -49 3 -52 15 -9 22 19 22 80 0
46 -3 54 -18 54 -13 0 -23 -12 -31 -41 -14 -46 -20 -45 -30 3 -5 24 -13 34
-29 36 -21 3 -22 0 -22 -62z"/>
<path d="M1140 146 c0 -9 8 -12 25 -8 14 2 25 8 25 13 0 5 -11 9 -25 9 -14 0
-25 -6 -25 -14z"/>
</g>
</svg>
